<svg width="1200" height="630" viewBox="0 0 1200 630" fill="none" xmlns="http://www.w3.org/2000/svg" role="img" aria-label="Duedoh Open Graph image">
  <defs>
    <linearGradient id="bg" x1="0" y1="0" x2="1200" y2="630" gradientUnits="userSpaceOnUse">
      <stop stop-color="#070A12"/>
      <stop offset="1" stop-color="#0B1220"/>
    </linearGradient>
    <radialGradient id="g1" cx="0" cy="0" r="1" gradientUnits="userSpaceOnUse" gradientTransform="translate(220 110) rotate(23) scale(520 360)">
      <stop stop-color="#F97316" stop-opacity="0.32"/>
      <stop offset="1" stop-color="#F97316" stop-opacity="0"/>
    </radialGradient>
    <radialGradient id="g2" cx="0" cy="0" r="1" gradientUnits="userSpaceOnUse" gradientTransform="translate(980 160) rotate(-18) scale(520 360)">
      <stop stop-color="#7C3AED" stop-opacity="0.22"/>
      <stop offset="1" stop-color="#7C3AED" stop-opacity="0"/>
    </radialGradient>
    <linearGradient id="accent" x1="0" y1="0" x2="1" y2="1">
      <stop stop-color="#FFB37A"/>
      <stop offset="1" stop-color="#F97316"/>
    </linearGradient>
  </defs>

  <rect width="1200" height="630" fill="url(#bg)"/>
  <rect width="1200" height="630" fill="url(#g1)"/>
  <rect width="1200" height="630" fill="url(#g2)"/>

  <g transform="translate(90 92)">
    <rect x="0" y="0" width="92" height="92" rx="24" fill="url(#accent)"/>
    <path d="M30 26H52.4C64.8 26 73.4 34.6 73.4 46.7C73.4 58.8 64.8 67.4 52.4 67.4H30V26ZM52 58.1C59 58.1 63.6 53.5 63.6 46.7C63.6 39.9 59 35.3 52 35.3H39.6V58.1H52Z" fill="#0B1220"/>
    <text x="114" y="44" fill="#EAF0FF" font-family="ui-sans-serif, system-ui, -apple-system, Segoe UI, Roboto, Helvetica, Arial" font-size="36" font-weight="800">Duedoh</text>
    <text x="114" y="82" fill="#B7C3E2" font-family="ui-sans-serif, system-ui, -apple-system, Segoe UI, Roboto, Helvetica, Arial" font-size="22" font-weight="650">Travel Better. Travel Brave</text>
  </g>

  <g transform="translate(90 255)">
    <text x="0" y="0" fill="#EAF0FF" font-family="ui-sans-serif, system-ui, -apple-system, Segoe UI, Roboto, Helvetica, Arial" font-size="54" font-weight="900">Travel Better.</text>
    <text x="0" y="62" fill="#EAF0FF" font-family="ui-sans-serif, system-ui, -apple-system, Segoe UI, Roboto, Helvetica, Arial" font-size="54" font-weight="900">Travel Brave.</text>
    <text x="0" y="115" fill="#B7C3E2" font-family="ui-sans-serif, system-ui, -apple-system, Segoe UI, Roboto, Helvetica, Arial" font-size="22" font-weight="600">Book in 5 steps: Home → Trip Setup → Available Dudes → Booking → Payment</text>
  </g>

  <g transform="translate(870 190)">
    <rect x="0" y="0" width="260" height="340" rx="42" fill="#0F1930" stroke="rgba(255,255,255,.10)"/>
    <rect x="22" y="28" width="216" height="34" rx="16" fill="rgba(255,255,255,.06)" stroke="rgba(255,255,255,.08)"/>
    <rect x="22" y="78" width="216" height="120" rx="22" fill="rgba(249,115,22,.10)" stroke="rgba(249,115,22,.25)"/>
    <rect x="22" y="212" width="216" height="46" rx="22" fill="url(#accent)"/>
    <rect x="22" y="272" width="216" height="46" rx="22" fill="rgba(255,255,255,.06)" stroke="rgba(255,255,255,.10)"/>
  </g>
</svg>
