<svg width="24" height="24" viewBox="0 0 24 24" fill="none" xmlns="http://www.w3.org/2000/svg" role="img" aria-label="ID card icon">
  <path d="M4 6.5C4 5.4 4.9 4.5 6 4.5H18C19.1 4.5 20 5.4 20 6.5V17.5C20 18.6 19.1 19.5 18 19.5H6C4.9 19.5 4 18.6 4 17.5V6.5Z" stroke="#FFB37A" stroke-width="1.6"/>
  <path d="M8 14.8C9.1 13.6 10.4 13 12 13C13.6 13 14.9 13.6 16 14.8" stroke="#EAF0FF" stroke-width="1.6" stroke-linecap="round"/>
  <path d="M12 11.4C13.3 11.4 14.3 10.4 14.3 9.1C14.3 7.8 13.3 6.8 12 6.8C10.7 6.8 9.7 7.8 9.7 9.1C9.7 10.4 10.7 11.4 12 11.4Z" fill="rgba(234,240,255,.20)" stroke="#EAF0FF" stroke-width="1.2"/>
</svg>

